<?xml version="1.0" encoding="UTF-8"?>
<svg id="Layer_1" data-name="Layer 1" xmlns="http://www.w3.org/2000/svg" viewBox="0 0 1500 1500">
  <defs>
    <style>
      .cls-1 {
        fill: #0f766e;
        stroke-width: 0px;
      }
    </style>
  </defs>
  <path class="cls-1" d="m1031.25,750.17c0,65.04-3.52,127.73-9.67,187.5H478.42c-6.45-59.77-9.67-122.46-9.67-187.5s3.52-127.73,9.67-187.5h543.16c6.45,59.77,9.67,122.46,9.67,187.5Zm84.37-187.5h360.64c15.53,60.06,23.73,122.75,23.73,187.5s-8.2,127.44-23.73,187.5h-360.64c6.15-60.35,9.38-123.05,9.38-187.5s-3.22-127.15-9.38-187.5Zm329.88-93.75h-341.89c-29.3-187.21-87.3-343.95-162.01-444.14,229.39,60.64,416.02,227.05,503.61,444.14h.29Zm-436.82,0H491.31c17.87-106.64,45.41-200.98,79.1-277.44,30.76-69.14,65.04-119.24,98.14-150.88C701.37,9.54,728.61.17,750,.17s48.63,9.38,81.45,40.43c33.11,31.64,67.38,81.74,98.14,150.88,33.98,76.17,61.23,170.51,79.1,277.44Zm-612.3,0H54.49C142.38,251.83,328.71,85.42,558.4,24.78c-74.71,100.2-132.71,256.93-162.01,444.14h0ZM23.73,562.67h360.64c-6.15,60.35-9.37,123.05-9.37,187.5s3.22,127.15,9.37,187.5H23.73C8.2,877.61,0,814.91,0,750.17s8.2-127.44,23.73-187.5Zm546.68,745.9c-33.98-76.17-61.23-170.51-79.1-277.15h517.38c-17.87,106.64-45.41,200.98-79.1,277.15-30.76,69.14-65.04,119.24-98.14,150.88-32.81,31.35-60.06,40.72-81.45,40.72s-48.63-9.38-81.45-40.43c-33.11-31.64-67.38-81.74-98.14-150.88v-.29Zm-174.02-277.15c29.3,187.21,87.3,343.95,162.01,444.14-229.69-60.64-416.02-227.05-503.91-444.14h341.89Zm1049.12,0c-87.89,217.09-274.22,383.5-503.61,444.14,74.71-100.2,132.42-256.93,162.01-444.14h341.6Z"/>
</svg>